<svg width="83" height="83" viewBox="0 0 83 83" fill="none" xmlns="http://www.w3.org/2000/svg">
<path fill-rule="evenodd" clip-rule="evenodd" d="M0 5.51956V58.8754C0 61.8944 3.30822 64.395 5.67625 64.395H26.8172C26.8172 66.3358 26.8392 67.8728 26.5141 69.8044C26.2768 71.2176 25.9034 72.0113 25.6442 73.1859C23.7155 73.1859 21.0048 72.8188 19.4495 73.4612C15.4647 75.1129 15.9304 83 21.1409 83H61.8588C63.1856 83 64.1521 82.5504 64.8463 81.8254C66.9068 79.6644 66.6652 74.8743 63.6908 73.5254C62.1927 72.8464 59.4996 73.1905 57.5533 73.1905C56.5164 68.5381 56.3803 70.1394 56.3803 64.3996H77.3235C78.5712 64.3996 80.4648 63.3534 81.1897 62.7111C81.9585 62.0229 83.0041 60.3023 83.0041 58.88V5.93249C83.0041 2.37666 79.8102 0.00457764 76.3482 0.00457764H6.66037C4.89862 0.00457764 3.21156 0.637745 2.20987 1.49114C1.23015 2.32619 0.00439338 3.77605 0.00439338 5.52415L0 5.51956ZM63.0318 57.242C63.0318 58.233 63.6513 58.8754 64.5959 58.8754H74.1866C76.2427 58.8754 76.2427 55.604 74.1866 55.604H64.5959C63.6469 55.604 63.0318 56.251 63.0318 57.2374V57.242ZM38.1697 22.8995C38.1697 24.1751 37.6073 25.1478 36.4079 25.1478H30.143V32.0988H36.0169C37.4843 32.0988 38.1697 32.8146 38.1697 34.347V40.4814H44.8257V34.347C44.8257 32.8146 45.511 32.0988 46.9784 32.0988H52.8524V25.1478H46.5874C45.3836 25.1478 44.8257 24.1751 44.8257 22.8995V16.7652H38.1697V22.8995Z" fill="#0AC5A8"/>
</svg>
