<svg width="84" height="84" viewBox="0 0 84 84" fill="none" xmlns="http://www.w3.org/2000/svg">
<path fill-rule="evenodd" clip-rule="evenodd" d="M-9.9499e-05 46.4293C-9.9499e-05 48.1387 0.127259 49.2736 1.0499 50.7934C1.66688 51.8123 2.34896 52.4689 3.15839 53.2783L30.6395 80.7595C32.8924 83.0123 34.1829 84 37.5707 84C41.032 84 42.9565 81.484 44.748 79.6925C48.8546 75.5859 81.4839 43.1519 82.364 42.0029C83.1056 41.0349 83.9999 39.4245 83.9999 37.7321V7.38115C83.9999 3.50663 80.4905 -0.00280762 76.6159 -0.00280762H46.265C43.0301 -0.00280762 40.9697 2.58398 39.1697 4.38681L4.38669 39.1698C2.5782 40.9783 -0.00292969 42.9396 -0.00292969 46.4293H-9.9499e-05ZM31.4744 38.7453C32.0631 38.7453 32.482 38.434 32.7367 37.817C32.9857 37.1944 33.1131 36.1444 33.1131 34.65C33.1131 33.1472 32.9857 32.0774 32.7367 31.4462C32.482 30.8151 32.0631 30.4953 31.4744 30.4953C30.8857 30.4953 30.4612 30.8208 30.1924 31.4661C29.9291 32.1113 29.7961 33.1755 29.7961 34.65C29.7961 36.1161 29.9291 37.1661 30.1924 37.7972C30.4612 38.4283 30.8857 38.7481 31.4744 38.7481V38.7453ZM39.2801 34.6274C39.2801 37.1802 38.5725 39.2066 37.1546 40.7236C35.7367 42.2406 33.8376 42.9991 31.4546 42.9991C29.0574 42.9991 27.1584 42.2462 25.749 40.7378C24.3395 39.2264 23.6291 37.1944 23.6291 34.6274C23.6291 32.0689 24.3367 30.034 25.749 28.517C27.1584 27 29.0603 26.2415 31.4546 26.2415C33.8518 26.2415 35.7508 27 37.1603 28.517C38.5697 30.034 39.2801 32.0689 39.2801 34.6274V34.6274ZM52.5707 53.5047C53.1452 53.5047 53.5612 53.1849 53.8188 52.5538C54.082 51.9227 54.2093 50.8528 54.2093 49.35C54.2093 47.8528 54.082 46.8057 53.8329 46.1802C53.5782 45.5632 53.1593 45.2519 52.5707 45.2519C51.982 45.2519 51.5574 45.5717 51.2886 46.2028C51.0254 46.834 50.8924 47.884 50.8924 49.35C50.8924 50.8245 51.0282 51.8887 51.2886 52.5312C51.5574 53.1764 51.982 53.5019 52.5707 53.5019V53.5047ZM60.3735 49.35C60.3735 51.917 59.6659 53.9576 58.2537 55.483C56.8357 57 54.9424 57.7585 52.5678 57.7585C50.165 57.7585 48.2574 57 46.8395 55.483C45.4273 53.9576 44.7197 51.917 44.7197 49.35C44.7197 46.7915 45.4273 44.7651 46.8395 43.2623C48.2574 41.751 50.165 41.001 52.5678 41.001C54.9565 41.001 56.8499 41.751 58.2593 43.2623C59.6688 44.7651 60.3707 46.7915 60.3707 49.35H60.3735ZM31.0612 57.7557L48.6112 26.2415H52.9782L35.3263 57.7557H31.0584H31.0612Z" fill="#0AC5A8"/>
</svg>
