<svg width="103" height="84" viewBox="0 0 103 84" fill="none" xmlns="http://www.w3.org/2000/svg">
<path fill-rule="evenodd" clip-rule="evenodd" d="M26.3516 66.6929V78.5579C26.3516 79.2591 26.483 79.4065 27.0243 79.6605C29.4366 80.7988 41.351 83.0092 44.4939 83.3852C46.8431 83.6646 53.0815 84.2338 55.4045 83.8933C56.6343 83.7155 57.8956 83.8984 59.1307 83.8018C61.3958 83.624 64.0289 83.2276 66.0365 82.8923C68.9534 82.4096 72.4799 81.566 75.2075 80.4786C75.9486 80.1839 77.2677 79.5132 78.0508 79.3353C78.0508 75.2753 78.3661 63.5882 77.5988 60.1278C76.821 56.6013 75.2759 54.0606 72.9634 51.3878L69.2424 48.3746C66.5884 46.7587 62.9988 45.3004 58.7418 45.3004H45.6659C37.5722 45.3004 30.4246 50.463 27.5866 57.7751C26.6301 60.2497 26.3516 63.3392 26.3516 66.6929Z" fill="#0AC5A8"/>
<path fill-rule="evenodd" clip-rule="evenodd" d="M0 48.024V64.5587L10.7845 67.1655C13.6908 67.8159 19.7978 68.6441 22.9354 68.6441C22.9354 59.2436 23.2087 56.3066 28.8532 49.274C29.2053 48.837 29.6047 48.4254 30.0357 48.0799C32.7476 45.8949 35.5541 43.7912 39.2277 42.9629C38.9387 41.9111 33.7724 38.095 33.5937 30.3205H18.1055C8.87144 30.3205 0 39.1824 0 48.0189V48.024Z" fill="#0AC5A8"/>
<path fill-rule="evenodd" clip-rule="evenodd" d="M70.8137 31.103C70.8137 33.288 69.7363 36.3114 68.9427 37.8511C68.3173 39.0604 67.1926 40.722 66.2413 41.657C65.7368 42.1499 65.3689 42.282 65.1797 42.968C66.7511 43.095 70.3302 45.0209 71.4969 45.8085C75.1233 48.2424 78.1505 51.647 79.806 55.6663C81.8767 60.6867 81.472 63.5424 81.472 68.8372C82.7491 68.8372 83.1486 68.639 84.494 68.6441C88.7878 68.6543 96.7132 66.7894 100.96 65.1176C101.47 64.9144 102.999 64.4418 102.999 63.7812V48.029C102.999 43.3796 100.46 38.9893 97.4753 35.8642C97.1179 35.4882 96.7342 35.2494 96.3138 34.848C93.7911 32.4292 88.546 30.3256 84.8987 30.3256H70.8189V31.103H70.8137Z" fill="#0AC5A8"/>
<path fill-rule="evenodd" clip-rule="evenodd" d="M67.3929 30.3256C67.3929 24.3448 64.2868 19.0094 58.8788 16.5754C52.6142 13.7552 44.5994 15.2898 40.4317 20.5948C39.7327 21.484 38.7814 22.8153 38.3032 23.984C34.6663 32.8561 39.8851 42.0178 48.8039 44.0198C52.0045 44.7363 55.6414 44.4263 58.2114 43.2271C60.403 42.2058 59.7723 42.5971 61.7379 41.1895C62.8731 40.3765 63.6457 39.5482 64.4971 38.41C65.9476 36.4639 67.3982 33.5573 67.3982 30.3205L67.3929 30.3256Z" fill="#0AC5A8"/>
<path fill-rule="evenodd" clip-rule="evenodd" d="M10.6641 13.9839C10.6641 17.6476 11.2264 20.361 13.5073 23.298C13.7911 23.6639 14.0224 23.9129 14.3114 24.2686C14.611 24.6395 14.7582 24.8936 15.1471 25.2137L17.1547 26.7737C17.8117 27.2259 18.6736 27.729 19.4567 28.0491C26.1418 30.8134 33.426 28.3083 33.9621 26.5959C34.104 26.1487 34.1355 25.666 34.2827 25.1578C34.9028 23.0084 35.8015 20.9149 37.189 19.2126C37.8512 18.3945 39.8904 15.986 40.8417 15.7421C40.8417 11.489 40.0638 7.91168 36.9735 4.89335C32.4064 0.436998 26.3205 -1.30591 20.2345 1.06709C14.9369 3.1352 10.6693 8.17083 10.6693 13.989L10.6641 13.9839Z" fill="#0AC5A8"/>
<path fill-rule="evenodd" clip-rule="evenodd" d="M62.1631 13.9839C62.1631 14.7461 62.3786 14.7309 62.9987 15.117L66.0154 17.6476C66.6619 18.4301 67.0718 18.8569 67.6762 19.736C71.1607 24.8123 70.0622 27.4292 71.2658 28.1304L73.5099 28.8825C76.8104 29.8022 80.3474 29.3296 83.4062 28.0999C88.1204 26.2097 92.3407 20.7777 92.3407 15.7319C92.3407 10.6658 91.4525 7.78972 87.7631 4.20736C83.4377 0.00506917 77.0154 -1.08234 71.2973 1.2246C66.2624 3.25714 62.1631 8.52143 62.1631 13.9788V13.9839Z" fill="#0AC5A8"/>
</svg>
