<svg width="40" height="40" viewBox="0 0 40 40" fill="none" xmlns="http://www.w3.org/2000/svg">
<path d="M40 20C40 31.0458 31.0458 40 20 40C8.95416 40 0 31.0458 0 20C0 8.95416 8.95416 0 20 0C31.0458 0 40 8.95416 40 20Z" fill="#0AC5A8"/>
<path d="M26.1141 5.88381V10.4126C26.1141 10.4126 20.9145 9.65792 20.9145 13.0124V16.3669H25.6108L25.024 21.4826H20.9145V34.8169H15.7149V21.4826L11.27 21.3986V16.3669H15.631V12.5092C15.631 12.5092 15.3432 6.77035 20.9984 5.71627C23.3467 5.27834 26.1141 5.88381 26.1141 5.88381Z" fill="#2F2C2C"/>
</svg>
