<svg width="40" height="40" viewBox="0 0 40 40" fill="none" xmlns="http://www.w3.org/2000/svg">
<g clip-path="url(#clip0_83_1396)">
<path d="M39.3152 32.8455C38.9511 36.2567 36.257 38.9514 32.8455 39.3152C24.2902 40.2283 15.7098 40.2283 7.15485 39.3152C3.74329 38.9511 1.04889 36.2567 0.684814 32.8455C-0.228271 24.2905 -0.228271 15.7098 0.684814 7.15485C1.04889 3.74329 3.74329 1.0489 7.15454 0.684822C15.7095 -0.228264 24.2902 -0.228264 32.8455 0.684822C36.257 1.0489 38.9511 3.74329 39.3152 7.15485C40.2283 15.7098 40.2283 24.2902 39.3152 32.8455Z" fill="#0AC5A8"/>
<path d="M7.42871 24.8514C7.51202 25.4398 7.5755 26.0315 7.6814 26.6156C8.28168 29.924 10.6239 32.175 13.9729 32.2903C18.0052 32.4289 22.0497 32.4362 26.0814 32.2909C29.7264 32.1597 32.3661 29.4607 32.48 25.8145C32.6011 21.9427 32.6011 18.0615 32.48 14.1898C32.3661 10.5435 29.7273 7.84484 26.0817 7.71331C22.05 7.56775 18.0046 7.56408 13.9732 7.71545C10.3276 7.85247 7.80743 10.5576 7.5636 14.2093C7.54254 14.5251 7.47479 14.8383 7.42871 15.1526C7.42871 18.3856 7.42871 21.6186 7.42871 24.8514ZM20.0032 9.87426C21.8483 9.87426 23.6952 9.81903 25.5378 9.88708C28.4269 9.9942 30.204 11.7184 30.2714 14.6048C30.355 18.2013 30.355 21.8027 30.2714 25.3995C30.204 28.2852 28.4257 30.0497 25.5378 30.1111C21.8724 30.1886 18.2029 30.188 14.5375 30.1111C11.6716 30.051 9.88934 28.3221 9.81152 25.4681C9.71265 21.8262 9.71265 18.1778 9.81152 14.5358C9.88934 11.6821 11.6716 9.99328 14.5378 9.88708C16.3572 9.81933 18.1813 9.87426 20.0032 9.87426Z" fill="url(#paint0_linear_83_1396)"/>
<path d="M7.42871 24.8514C7.51202 25.4398 7.5755 26.0315 7.6814 26.6156C8.28168 29.924 10.6239 32.175 13.9729 32.2903C18.0052 32.4289 22.0497 32.4362 26.0814 32.2909C29.7264 32.1597 32.3661 29.4607 32.48 25.8145C32.6011 21.9427 32.6011 18.0615 32.48 14.1898C32.3661 10.5435 29.7273 7.84484 26.0817 7.71331C22.05 7.56774 18.0046 7.56408 13.9732 7.71545C10.3276 7.85247 7.80743 10.5576 7.5636 14.2093C7.54254 14.5251 7.47479 14.8383 7.42871 15.1526C7.42871 18.3856 7.42871 21.6186 7.42871 24.8514ZM20.0032 9.87426C21.8483 9.87426 23.6952 9.81903 25.5378 9.88708C28.4269 9.9942 30.204 11.7184 30.2714 14.6048C30.355 18.2013 30.355 21.8027 30.2714 25.3995C30.204 28.2852 28.4257 30.0497 25.5378 30.1111C21.8724 30.1886 18.2029 30.188 14.5375 30.1111C11.6716 30.051 9.88934 28.3221 9.81152 25.4681C9.71265 21.8262 9.71265 18.1778 9.81152 14.5358C9.88934 11.6821 11.6716 9.99328 14.5378 9.88708C16.3572 9.81933 18.1813 9.87426 20.0032 9.87426Z" fill="#2F2C2C"/>
<path d="M19.9996 26.4066C16.4614 26.4066 13.5928 23.5382 13.5928 20C13.5928 16.4615 16.4614 13.5931 19.9996 13.5931C23.5381 13.5931 26.4065 16.4615 26.4065 20C26.4065 23.5382 23.5381 26.4066 19.9996 26.4066ZM19.9996 15.799C17.6794 15.799 15.7986 17.6798 15.7986 20C15.7986 22.3203 17.6794 24.2011 19.9996 24.2011C22.3199 24.2011 24.2007 22.3203 24.2007 20C24.2007 17.6798 22.3199 15.799 19.9996 15.799Z" fill="#2F2C2C"/>
<path d="M28.3047 26.6989C28.3047 25.8572 27.6224 25.1749 26.7807 25.1749C25.939 25.1749 25.2563 25.8572 25.2563 26.6989C25.2563 27.5409 25.939 28.2233 26.7807 28.2233C27.6224 28.2233 28.3047 27.5409 28.3047 26.6989Z" fill="#2F2C2C"/>
</g>
<defs>
<linearGradient id="paint0_linear_83_1396" x1="27.9419" y1="27.8868" x2="11.761" y2="11.7058" gradientUnits="userSpaceOnUse">
<stop stop-color="#833AB4"/>
<stop offset="0.0922" stop-color="#9C3495"/>
<stop offset="0.2927" stop-color="#DC2546"/>
<stop offset="0.392" stop-color="#FD1D1D"/>
<stop offset="0.5589" stop-color="#FC6831"/>
<stop offset="0.6887" stop-color="#FC9B40"/>
<stop offset="0.7521" stop-color="#FCAF45"/>
<stop offset="0.7806" stop-color="#FDB750"/>
<stop offset="0.8656" stop-color="#FECB6A"/>
<stop offset="0.9415" stop-color="#FFD87A"/>
<stop offset="1" stop-color="#FFDC80"/>
</linearGradient>
<clipPath id="clip0_83_1396">
<rect width="40" height="40" fill="white" transform="matrix(1 0 0 -1 0 40)"/>
</clipPath>
</defs>
</svg>
