<svg width="40" height="40" viewBox="0 0 40 40" fill="none" xmlns="http://www.w3.org/2000/svg">
<path d="M40 20C40 31.0458 31.0458 40 20 40C8.95416 40 0 31.0458 0 20C0 8.95416 8.95416 0 20 0C31.0458 0 40 8.95416 40 20Z" fill="#4A7AFF"/>
<path d="M40 20C40 31.0458 31.0458 40 20 40C8.95416 40 0 31.0458 0 20C0 8.95416 8.95416 0 20 0C31.0458 0 40 8.95416 40 20Z" fill="#0AC5A8"/>
<path d="M15.0053 30.9415C25.1664 30.9415 30.7231 22.5232 30.7231 15.2237C30.7231 14.9844 30.7182 14.7467 30.7072 14.5099C31.7857 13.7299 32.7232 12.757 33.463 11.6495C32.473 12.0892 31.4079 12.3856 30.2903 12.5189C31.4311 11.8353 32.3066 10.7532 32.7198 9.4632C31.652 10.0961 30.4704 10.556 29.2122 10.8041C28.2039 9.73053 26.7683 9.05884 25.1799 9.05884C22.1287 9.05884 19.6547 11.5329 19.6547 14.5825C19.6547 15.0162 19.7032 15.4376 19.7978 15.8423C15.207 15.6113 11.1357 13.4128 8.41138 10.0705C7.93652 10.8868 7.66339 11.8353 7.66339 12.847C7.66339 14.7635 8.63873 16.4557 10.1216 17.4454C9.21552 17.4176 8.36407 17.1683 7.61975 16.7542C7.61853 16.7773 7.61853 16.8005 7.61853 16.8246C7.61853 19.5004 9.52283 21.734 12.0503 22.2403C11.5864 22.3666 11.0981 22.4347 10.594 22.4347C10.2382 22.4347 9.89209 22.3993 9.55548 22.3352C10.2589 24.5297 12.2981 26.127 14.7163 26.1722C12.8251 27.6538 10.4435 28.5367 7.85535 28.5367C7.40979 28.5367 6.97003 28.5114 6.5376 28.4601C8.98236 30.0269 11.8852 30.9415 15.0053 30.9415Z" fill="#2F2C2C"/>
</svg>
