<svg width="23" height="19" viewBox="0 0 23 19" fill="none" xmlns="http://www.w3.org/2000/svg">
<path d="M11.195 5.19782L3.83296 11.2613V17.8055C3.83296 17.9749 3.90027 18.1374 4.02008 18.2573C4.1399 18.3771 4.3024 18.4444 4.47184 18.4444L8.94646 18.4328C9.11535 18.432 9.27704 18.3643 9.39616 18.2446C9.51529 18.1248 9.58216 17.9628 9.58216 17.7939V13.9722C9.58216 13.8027 9.64947 13.6402 9.76928 13.5204C9.8891 13.4006 10.0516 13.3333 10.221 13.3333H12.7766C12.946 13.3333 13.1085 13.4006 13.2284 13.5204C13.3482 13.6402 13.4155 13.8027 13.4155 13.9722V17.7911C13.4152 17.8752 13.4316 17.9585 13.4635 18.0362C13.4955 18.114 13.5426 18.1846 13.6019 18.2442C13.6613 18.3037 13.7318 18.351 13.8094 18.3832C13.8871 18.4154 13.9703 18.432 14.0544 18.432L18.5274 18.4444C18.6968 18.4444 18.8593 18.3771 18.9792 18.2573C19.099 18.1374 19.1663 17.9749 19.1663 17.8055V11.2569L11.8059 5.19782C11.7194 5.12808 11.6116 5.09004 11.5004 5.09004C11.3893 5.09004 11.2815 5.12808 11.195 5.19782ZM22.8239 9.31906L19.4857 6.56744V1.03666C19.4857 0.909579 19.4352 0.787701 19.3454 0.69784C19.2555 0.607979 19.1336 0.557495 19.0066 0.557495H16.7705C16.6434 0.557495 16.5215 0.607979 16.4316 0.69784C16.3418 0.787701 16.2913 0.909579 16.2913 1.03666V3.93602L12.7163 0.994735C12.3732 0.712417 11.9427 0.558059 11.4984 0.558059C11.0541 0.558059 10.6236 0.712417 10.2805 0.994735L0.17292 9.31906C0.1244 9.35916 0.0842568 9.40843 0.0547848 9.46406C0.0253129 9.51968 0.00708971 9.58057 0.00115659 9.64323C-0.00477653 9.7059 0.00169665 9.76913 0.0202063 9.82929C0.0387159 9.88946 0.0688992 9.94539 0.109032 9.99388L1.12726 11.2317C1.16728 11.2804 1.21651 11.3207 1.27213 11.3503C1.32774 11.3799 1.38865 11.3983 1.45137 11.4043C1.51409 11.4104 1.57739 11.404 1.63764 11.3855C1.69789 11.3671 1.7539 11.3369 1.80249 11.2968L11.195 3.56067C11.2815 3.49092 11.3893 3.45289 11.5004 3.45289C11.6116 3.45289 11.7194 3.49092 11.8059 3.56067L21.1988 11.2968C21.2473 11.337 21.3032 11.3671 21.3633 11.3856C21.4235 11.4042 21.4867 11.4106 21.5494 11.4047C21.6121 11.3988 21.673 11.3805 21.7286 11.3511C21.7842 11.3216 21.8335 11.2815 21.8736 11.2329L22.8918 9.99508C22.9319 9.94631 22.962 9.89009 22.9802 9.82966C22.9985 9.76923 23.0047 9.70578 22.9984 9.64296C22.9921 9.58014 22.9734 9.51918 22.9435 9.4636C22.9135 9.40801 22.8729 9.35889 22.8239 9.31906Z" fill="white" fill-opacity="0.5"/>
</svg>
